<svg xmlns="http://www.w3.org/2000/svg" xmlns:xlink="http://www.w3.org/1999/xlink" version="1.1" id="Calque_1" x="0px" y="0px" style="enable-background:new 0 0 653.8 367.8;" xml:space="preserve" viewBox="90.4 134 472.3 100.7">
<style type="text/css">
	.st0{fill:#2484ff;}
	.st1{fill:#031830;}
</style>
<g>
	<g>
		<rect x="110.5" y="214.6" class="st0" width="20.1" height="20.1" fill="#000000"/>
		<rect x="130.7" y="194.4" class="st0" width="20.1" height="20.1" fill="#000000"/>
		<polygon class="st0" points="110.5,174.3 110.5,154.1 90.4,154.1 90.4,174.3 90.4,194.4 90.4,214.6 110.5,214.6 110.5,194.4     130.7,194.4 130.7,174.3   " fill="#000000"/>
		<rect x="130.7" y="154.1" class="st0" width="20.1" height="20.1" fill="#000000"/>
		<rect x="110.5" y="134" class="st0" width="20.1" height="20.1" fill="#000000"/>
	</g>
	<g>
		<path class="st1" d="M199.5,209.2v-50.7h22.7c5.4,0,9.5,1.2,12.3,3.7c2.7,2.4,4,5.6,4,9.5c0,5-2.6,8.3-7.9,10.1v0.2    c2.8,0.9,5.1,2.4,6.8,4.6c1.7,2.2,2.6,4.9,2.6,7.9c0,4.5-1.5,8-4.5,10.6c-3.1,2.7-7.3,4-12.8,4H199.5z M209.7,178.9h11.1    c2.3,0,4.1-0.5,5.5-1.6s2.1-2.6,2.1-4.5c0-1.9-0.7-3.4-2-4.4c-1.3-1-3.1-1.6-5.4-1.6h-11.3V178.9z M209.7,186.5v14.2h11.8    c2.5,0,4.4-0.6,5.8-1.9c1.4-1.3,2.1-2.9,2.1-5c0-2.3-0.8-4.1-2.3-5.4c-1.5-1.3-3.5-1.9-5.9-1.9H209.7z" fill="#000000"/>
		<path class="st1" d="M245.3,209.2v-50.7h9.6v50.7H245.3z" fill="#000000"/>
		<path class="st1" d="M318.9,210.2c-5.6,0-10.1-1.8-13.5-5.5c-3.4-3.6-5.1-8.2-5.1-13.8c0-5.5,1.7-10.1,5-13.8    c3.3-3.6,7.7-5.5,13.2-5.5c4.6,0,8.3,1.2,11.2,3.6c2.9,2.4,4.7,5.6,5.3,9.7h-9.4c-0.3-1.7-1.1-3-2.3-4c-1.2-1-2.6-1.6-4.4-1.6    c-2.8,0-5,1-6.5,3c-1.5,2-2.3,4.8-2.3,8.4c0,3.5,0.7,6.3,2.2,8.4c1.5,2.1,3.6,3.1,6.5,3.1c4.2,0,6.6-2.1,7.3-6.2h9.3    c-0.3,4-2,7.3-4.9,10C327.5,208.9,323.7,210.2,318.9,210.2z" fill="#000000"/>
		<path class="st1" d="M363.5,209.2l-10.2-16.6l-4.2,4.3v12.3h-9.6v-50.7h9.6v28.1l12.9-13.8h11.6l-13.4,13.8l15,22.5H363.5z" fill="#000000"/>
		<path class="st1" d="M379,209.2v-50.7h14.5l7.2,25.5c0.5,1.9,1.1,4,1.6,6.3c0.5,2.3,1,4.1,1.2,5.4l0.4,2h0.1    c0.9-4.9,1.9-9.4,3.1-13.7l7.2-25.5h14.7v50.7h-9.6v-29.1l0.4-10.5h-0.1c-0.8,4-1.5,7.2-2.2,9.6l-8.7,29.9h-9.9l-8.5-29.9    l-2.2-9.6H388c0.3,4.3,0.4,7.8,0.4,10.5v29.1H379z" fill="#000000"/>
		<path class="st1" d="M453,210.2c-5.9,0-10.5-1.8-13.8-5.4c-3.4-3.6-5-8.2-5-13.9c0-5.4,1.7-10,5-13.6c3.4-3.7,7.7-5.5,12.9-5.5    c5.7,0,10.1,2,13.3,6c3.1,4,4.7,9.3,4.7,16h-26.4c0.4,2.9,1.3,5.1,2.9,6.7c1.6,1.6,3.7,2.4,6.4,2.4c3.5,0,5.9-1.5,7-4.5h9.5    c-0.7,3.4-2.5,6.2-5.4,8.5C461.2,209.1,457.5,210.2,453,210.2z M452.2,179.2c-4.7,0-7.5,2.6-8.4,7.8H460c-0.1-2.3-0.9-4.2-2.3-5.6    C456.2,180,454.4,179.2,452.2,179.2z" fill="#000000"/>
		<path class="st1" d="M488.1,210.2c-4.6,0-8.3-1.7-11.1-5.2c-2.8-3.5-4.3-8.1-4.3-14c0-5.7,1.5-10.3,4.4-13.9    c2.9-3.6,6.6-5.4,11.2-5.4s8,1.8,10.3,5.4h0.2v-18.7h9.6v50.7h-9.3v-4.8H499C496.6,208.3,493,210.2,488.1,210.2z M490.3,202.1    c2.8,0,5-1,6.5-2.9s2.2-4.6,2.2-8c0-7.8-2.8-11.6-8.4-11.6c-2.6,0-4.6,1-6,3.1s-2.1,4.8-2.1,8.3c0,3.5,0.7,6.3,2,8.2    S487.8,202.1,490.3,202.1z" fill="#000000"/>
		<rect x="514.6" y="158.5" class="st1" width="9.6" height="8.7" fill="#000000"/>
		<rect x="514.6" y="172.8" class="st1" width="9.6" height="36.4" fill="#000000"/>
		<path class="st1" d="M553.4,209.2c-0.5-0.6-0.9-2-1.1-4h-0.1c-1,1.6-2.4,2.8-4,3.6c-1.6,0.9-3.9,1.3-6.7,1.3c-3.8,0-6.9-1-9.2-2.9    c-2.3-1.9-3.5-4.7-3.5-8.2c0-3.7,1.3-6.4,3.8-8.1c2.6-1.7,6.1-2.9,10.8-3.6c3.4-0.5,5.7-1,6.9-1.5c1.2-0.5,1.8-1.4,1.8-2.7    c0-1.3-0.5-2.4-1.6-3.2c-1-0.8-2.6-1.2-4.5-1.2c-4.4,0-6.7,1.7-7,5.1h-8.6c0.1-3.5,1.5-6.3,4.2-8.6c2.6-2.3,6.5-3.4,11.5-3.4    c10.2,0,15.3,4.5,15.3,13.4v18.5c0,2.7,0.4,4.4,1.3,5v0.4H553.4z M543.8,203.3c2.6,0,4.7-0.7,6.3-2.1c1.5-1.4,2.3-3,2.3-4.9v-5.5    c-1,0.6-3.3,1.3-6.7,2.1c-2.7,0.6-4.7,1.3-5.8,2.1c-1.1,0.8-1.7,2-1.7,3.6C538.1,201.7,540,203.3,543.8,203.3z" fill="#000000"/>
		<path class="st0" d="M278.6,172.2L259.8,191l18.9,18.8l18.8-18.8L278.6,172.2z M270.9,191l7.7-7.7l7.7,7.7l-7.7,7.7L270.9,191z" fill="#000000"/>
	</g>
</g>
</svg>